<?xml version="1.0" encoding="iso-8859-1"?>
<!-- Generator: Adobe Illustrator 19.0.0, SVG Export Plug-In . SVG Version: 6.00 Build 0)  -->
<svg xmlns="http://www.w3.org/2000/svg" xmlns:xlink="http://www.w3.org/1999/xlink" viewBox="0 0 512 512" style="enable-background:new 0 0 512 512;" xml:space="preserve">
<g>
	<path d="M111.941,141.412c0-31.546,25.665-57.21,57.21-57.21s57.21,25.664,57.21,57.21v46.103   c15.894-4.859,27.488-19.661,27.488-37.124V38.814C253.849,17.412,236.437,0,215.035,0h-91.768   c-21.402,0-38.814,17.412-38.814,38.814v111.577c0,17.463,11.594,32.265,27.488,37.124V141.412z"/>
	<path d="M405.241,0h-91.768c-21.402,0-38.814,17.412-38.814,38.814v111.577c0,21.402,17.412,38.814,38.814,38.814h91.768   c21.403,0,38.815-17.412,38.815-38.814V38.814C444.056,17.412,426.644,0,405.241,0z"/>
	<path d="M334.154,241.145c-15.188,0-27.5,12.312-27.5,27.501v-14.01c0-15.188-12.312-27.501-27.501-27.501   c-15.188,0-27.5,12.312-27.5,27.501v-11.781c0-14.444-11.137-26.278-25.291-27.404c-0.73-0.058-1.465-0.096-2.209-0.096   c-11.087,0-20.636,6.565-24.987,16.016c-1.609,3.496-2.514,7.383-2.514,11.484V141.412c0-15.188-12.312-27.501-27.5-27.501   c-15.188,0-27.501,12.313-27.501,27.501v236.09l-1.19-0.149l-16.944-72.518c-3.456-14.79-18.247-23.978-33.036-20.522h0   c-15.533,0-25.35,12.375-21.816,27.501l19.644,84.073C98.582,461.668,151.758,512,151.758,512h167.079   c27.917-42.462,42.796-92.166,42.804-142.983l0.014-100.372C361.655,253.457,349.342,241.145,334.154,241.145z"/>
</g></svg>
