<svg viewBox="-60 0 418 418.478" xmlns="http://www.w3.org/2000/svg"><path d="m275.066406 155.476562h-.683594c-13.15625 0-23.757812 11.203126-23.757812 25.570313v19.800781c0 3.867188-3.132812 7-7 7-3.863281 0-7-3.132812-7-7v-36.5625c0-14.367187-10.808594-26.054687-23.960938-26.054687-13.226562 0-24.039062 11.6875-24.039062 26.054687v38.753906c0 3.867188-3.132812 7-7 7-3.863281 0-7-3.132812-7-7v-49.394531c0-14.367187-10.585938-26.167969-23.738281-26.167969h-.726563c-12.824218 0-23.535156 11.222657-23.535156 25.089844v55.625c0 3.867188-3.132812 7-7 7-3.863281 0-7-3.132812-7-7v-54.023437c0-.175781-.019531-.355469-.019531-.53125 0-.441407.019531-.875.019531-1.308594v-126.273437c0-14.367188-10.824219-26.054688-23.976562-26.054688-13.15625 0-23.980469 11.679688-23.988282 26.03125l-.035156 127.757812v.054688l-.109375 81.617188c-.027344 3.878906-3.179687 7.011718-7.058594 7.015624-3.875-.015624-7.007812-3.167968-7-7.042968l.046875-65.445313-39.855468 37.457031c-9.789063 9.140626-13.035157 23.320313-8.191407 35.8125l51.1875 133.09375c13.757813 26.144532 39.582031 42.125 67.480469 42.125h100.203125c42.722656 0 77.519531-37.214843 77.5625-83.253906.023437-24.210937.046875-42.03125.066406-56.691406.050781-39.417969.066407-53.925781-.03125-97.316406-.035156-14.324219-10.738281-25.738282-23.859375-25.738282zm0 0"/></svg>